# xmcd CD database file
#
# Track frame offsets:
#	150
#	22040
#	57210
#	84806
#	116471
#	146838
#	170374
#	191934
#	221410
#	236778
#
# Disc length: 3761 seconds
#
# Revision: 0
# Processed by: cddbd v1.5.2PL0 Copyright (c) Steve Scherf et al.
# Submitted via: CDex 1.70beta2
#
DISCID=8a0eaf0a
DTITLE=Ladell McLin and the Lazy Americans - Live and Lazy
DYEAR=2004
DGENRE=Blues
TTITLE0=Don't Burn Down the Bridge
TTITLE1=Devil's Wife
TTITLE2=Baby Please Don't Leave Me
TTITLE3=Kingsnake
TTITLE4=Play the Blues for You
TTITLE5=Bad Dreams
TTITLE6=Smokin'
TTITLE7=Universe
TTITLE8=Killing Floor
TTITLE9=Hey Joe - Baby Please Don't Leave Me
EXTD=YEAR: 2004
EXTT0=
EXTT1=
EXTT2=
EXTT3=
EXTT4=
EXTT5=
EXTT6=
EXTT7=
EXTT8=
EXTT9=
PLAYORDER=
